<?xml version="1.0" standalone="no"?>
<!DOCTYPE svg PUBLIC "-//W3C//DTD SVG 20010904//EN"
 "http://www.w3.org/TR/2001/REC-SVG-20010904/DTD/svg10.dtd">
<svg version="1.0" xmlns="http://www.w3.org/2000/svg"
 width="507.000000pt" height="347.000000pt" viewBox="0 0 507.000000 347.000000"
 preserveAspectRatio="xMidYMid meet">

<g transform="translate(0.000000,347.000000) scale(0.100000,-0.100000)"
fill="#000000" stroke="none">
<path d="M1925 2393 c-90 -5 -166 -46 -242 -128 -35 -38 -63 -74 -63 -80 0 -7
-7 -19 -17 -26 -35 -29 -80 -117 -98 -189 -9 -41 -21 -85 -26 -98 -17 -43 -11
-117 11 -137 11 -10 20 -25 20 -34 0 -20 27 -61 41 -61 5 0 9 14 9 30 0 27 3
30 30 30 28 0 30 -2 29 -37 0 -21 -4 -47 -9 -58 -8 -18 -9 -17 -9 7 -1 39 -20
45 -27 9 -4 -17 -10 -31 -15 -31 -5 0 -9 -13 -9 -30 0 -16 5 -30 10 -30 7 0
10 -39 8 -107 -2 -107 -2 -108 -14 -58 -7 28 -13 84 -14 125 -2 82 -17 144
-20 80 -3 -77 2 -181 10 -210 11 -39 1 -38 -31 3 -15 18 -47 44 -72 57 l-46
24 -43 -23 c-24 -13 -50 -30 -58 -36 -8 -7 -58 -30 -110 -50 -158 -63 -167
-71 -278 -258 -70 -118 -130 -309 -191 -612 -16 -77 -43 -191 -60 -253 -17
-62 -31 -123 -31 -137 0 -13 -4 -35 -10 -49 l-10 -26 465 0 c323 0 465 3 465
11 0 6 -9 8 -21 4 -14 -5 -19 -3 -15 3 3 6 2 13 -4 17 -5 3 -10 -1 -10 -9 0
-9 -5 -16 -10 -16 -6 0 -9 3 -9 7 4 27 -1 35 -16 23 -12 -10 -21 -10 -45 0
-16 7 -28 16 -25 20 3 5 0 10 -7 12 -12 4 -21 38 -10 37 31 -5 1 36 -32 42
-10 2 -22 11 -27 19 -4 8 -20 42 -36 75 -15 33 -31 62 -34 65 -4 3 -9 14 -13
26 -6 18 2 25 56 49 87 38 166 43 243 16 33 -12 67 -29 77 -39 9 -9 24 -51 33
-92 9 -41 22 -81 30 -89 8 -8 36 -15 62 -17 26 -1 51 -3 56 -3 4 -1 7 -9 7
-18 1 -16 2 -16 15 1 8 11 23 21 34 23 14 2 17 -3 14 -21 -4 -17 -10 -22 -24
-19 -32 9 -21 -6 17 -22 42 -17 63 -19 84 -5 10 7 11 12 4 18 -6 4 -13 15 -17
25 -8 20 -27 14 -27 -9 0 -8 -4 -14 -10 -14 -15 0 -12 16 5 34 8 8 15 20 15
27 0 9 4 8 15 -1 12 -10 15 -9 15 4 0 12 6 15 23 11 28 -7 47 26 47 80 0 40
-2 39 37 20 39 -19 43 -26 77 -105 15 -36 40 -83 56 -105 16 -22 34 -50 40
-62 9 -23 13 -23 175 -23 136 0 165 2 165 14 0 8 15 26 32 40 l33 25 -68 -1
c-61 -1 -71 2 -95 26 -16 14 -33 26 -39 26 -18 0 -55 58 -47 72 4 6 8 32 8 56
1 42 -1 46 -34 60 -19 8 -37 16 -39 18 -2 2 13 22 33 44 20 22 36 45 36 52 0
7 -13 39 -29 73 -55 111 -129 306 -155 405 -31 117 -101 307 -127 344 -16 21
-26 43 -23 47 3 5 -6 14 -20 21 -14 6 -26 15 -26 20 0 5 -8 7 -18 4 -12 -4
-28 4 -47 24 -16 16 -25 30 -20 30 4 0 0 9 -9 19 -10 10 -13 22 -8 25 5 3 5
25 -1 54 -6 28 -7 57 -2 68 8 18 9 18 12 -2 6 -33 73 -59 73 -28 0 12 5 13 23
8 12 -5 36 -7 52 -6 17 1 41 0 53 -3 20 -5 23 -10 18 -31 -6 -24 -5 -24 16
-12 13 7 28 11 35 10 6 -1 22 11 35 28 18 23 23 40 20 66 -4 28 -7 32 -18 23
-10 -8 -12 -22 -9 -43 10 -50 -18 -60 -84 -30 -47 22 -51 26 -37 40 9 8 22 14
30 12 14 -3 16 0 16 20 0 12 -47 32 -75 32 -33 0 -40 16 -21 45 9 14 14 25 12
25 -11 0 -56 -24 -56 -29 0 -4 -13 -15 -30 -24 -29 -18 -30 -18 -30 2 0 20
-18 27 -57 22 -7 -1 -20 11 -30 26 -9 15 -18 30 -19 32 -2 1 -8 0 -14 -4 -9
-6 -9 -9 0 -15 9 -6 9 -12 -1 -29 -17 -27 -20 -27 -50 6 -13 14 -19 23 -12 19
6 -3 14 -2 18 4 3 5 0 10 -8 10 -23 0 -26 34 -7 73 10 20 16 46 13 56 -8 33
27 111 52 117 42 10 62 44 67 111 6 92 23 107 113 99 135 -11 244 -24 254 -31
6 -3 20 -8 32 -10 33 -7 45 -22 60 -73 18 -63 18 -190 1 -201 -7 -4 -31 -3
-52 3 -37 9 -61 4 -47 -10 13 -13 87 -22 88 -10 0 6 7 -11 15 -37 13 -43 13
-50 1 -60 -9 -8 -17 -35 -19 -72 -2 -33 -12 -75 -21 -94 -21 -41 -7 -67 18
-35 39 49 46 74 39 136 -4 39 -3 59 3 55 6 -4 9 26 9 76 0 45 4 114 8 153 8
66 7 76 -18 127 -14 31 -26 59 -26 63 0 4 -11 22 -25 40 -14 18 -29 44 -34 57
-15 38 -177 128 -227 125 -22 -1 -66 -3 -99 -5z m-334 -407 c13 -6 25 -20 27
-31 2 -18 1 -18 -14 3 -9 12 -25 22 -35 22 -13 0 -19 7 -19 23 0 16 3 18 9 9
4 -8 19 -19 32 -26z m-6 -36 c3 -5 -1 -10 -9 -10 -9 0 -16 5 -16 10 0 6 4 10
9 10 6 0 13 -4 16 -10z m25 -65 c0 -8 -7 -15 -15 -15 -8 0 -15 7 -15 15 0 8 7
15 15 15 8 0 15 -7 15 -15z m29 -297 c-4 -24 -12 -59 -18 -79 -8 -25 -8 -45
-1 -63 9 -25 8 -26 -11 -16 -16 9 -19 19 -17 55 2 25 8 47 15 49 7 3 15 28 19
55 4 28 10 49 14 46 4 -2 4 -24 -1 -47z m145 20 c-5 -8 -44 13 -44 23 0 4 11
2 24 -4 13 -7 22 -15 20 -19z m243 -21 c4 -7 -8 -8 -36 -4 -49 6 -61 14 -42
27 15 9 67 -6 78 -23z m-313 -3 c8 -21 -7 -17 -21 6 -11 16 -10 18 1 14 8 -3
17 -12 20 -20z m159 -367 c-26 -37 -55 -66 -64 -67 -9 0 -44 18 -77 40 -61 39
-78 56 -45 43 11 -4 14 -3 9 5 -5 8 -2 10 8 6 11 -4 14 0 11 15 -2 12 0 21 5
21 18 0 69 -51 64 -64 -4 -10 4 -13 27 -12 27 1 33 7 43 36 7 23 19 36 36 40
14 4 26 6 28 5 2 -2 -19 -32 -45 -68z m17 -446 c0 -9 -5 -22 -12 -29 -7 -7 -8
-12 -4 -12 5 0 -3 -9 -17 -20 -31 -24 -60 -26 -82 -3 -16 15 -15 18 7 35 12
10 31 16 41 14 10 -2 17 2 17 10 0 17 17 18 23 2 3 -7 6 -3 6 10 1 26 21 20
21 -7z m106 -157 c-5 -12 -9 -14 -20 -5 -14 12 -14 41 0 81 8 24 9 23 17 -17
5 -23 7 -49 3 -59z m-176 32 c0 -3 -4 -8 -10 -11 -5 -3 -10 -1 -10 4 0 6 5 11
10 11 6 0 10 -2 10 -4z m40 -16 c0 -5 -5 -10 -11 -10 -5 0 -7 5 -4 10 3 6 8
10 11 10 2 0 4 -4 4 -10z m83 -45 c9 -20 17 -40 17 -45 0 -18 -29 2 -35 23 -4
12 -9 30 -11 40 -9 31 12 18 29 -18z m-63 -6 c0 -5 4 -8 10 -4 12 7 43 -52 35
-66 -4 -5 -15 -7 -26 -4 -13 4 -19 2 -19 -9 0 -9 -4 -16 -10 -16 -5 0 -10 25
-10 55 0 30 5 55 10 55 6 0 10 -5 10 -11z m93 -70 c-6 -6 -9 -18 -6 -25 5 -13
-7 -18 -33 -15 -6 1 -19 -8 -29 -19 -10 -11 -22 -20 -27 -20 -19 0 -2 20 47
55 50 35 68 44 48 24z m-131 -39 c-2 -16 -8 -30 -13 -30 -5 0 -9 -6 -9 -14 0
-8 -4 -18 -10 -21 -5 -3 -3 13 5 35 23 66 34 78 27 30z m145 -116 c-9 -9 -28
6 -21 18 4 6 10 6 17 -1 6 -6 8 -13 4 -17z m-41 -21 c-3 -21 -6 -46 -6 -55 0
-10 -4 -18 -10 -18 -5 0 -10 6 -10 13 0 7 -14 26 -30 42 -24 23 -33 27 -39 16
-9 -13 -31 -7 -31 8 0 16 55 20 71 5 21 -19 29 -18 29 6 0 12 7 20 16 20 14 0
15 -7 10 -37z m-202 12 c-4 -8 -8 -15 -10 -15 -2 0 -4 7 -4 15 0 8 4 15 10 15
5 0 7 -7 4 -15z m53 3 c-15 -41 -18 -60 -10 -55 6 4 15 -6 22 -21 10 -24 10
-25 -2 -9 -20 24 -30 21 -23 -7 3 -14 2 -28 -4 -31 -10 -6 -15 10 -10 30 1 6
2 25 1 44 0 19 4 40 10 48 14 16 23 17 16 1z m-107 -48 c0 -5 -5 -10 -11 -10
-5 0 -7 5 -4 10 3 6 8 10 11 10 2 0 4 -4 4 -10z m60 -16 c0 -8 -4 -12 -10 -9
-5 3 -10 13 -10 21 0 8 5 12 10 9 6 -3 10 -13 10 -21z m110 5 c0 -5 -7 -9 -15
-9 -15 0 -20 12 -9 23 8 8 24 -1 24 -14z m-100 -69 c0 -5 -4 -10 -9 -10 -6 0
-13 5 -16 10 -3 6 1 10 9 10 9 0 16 -4 16 -10z"/>
<path d="M1904 1953 c-42 -46 -30 -62 32 -44 42 12 121 -6 127 -30 7 -27 -13
-42 -33 -24 -21 19 -170 33 -170 16 0 -6 8 -14 18 -18 9 -4 32 -19 50 -35 37
-32 108 -40 118 -13 3 8 14 17 24 20 23 7 36 43 21 58 -6 6 -11 19 -11 28 0
23 -7 27 -86 49 l-67 18 -23 -25z m111 -123 c-3 -5 1 -11 7 -13 7 -3 -1 -6
-19 -6 -34 -1 -83 17 -83 30 0 4 16 1 36 -7 20 -8 33 -10 29 -5 -11 18 5 33
21 20 7 -6 12 -15 9 -19z"/>
<path d="M2773 1890 c0 -30 2 -43 4 -27 2 15 2 39 0 55 -2 15 -4 2 -4 -28z"/>
<path d="M4318 1587 c-3 -199 -9 -299 -17 -313 -9 -15 -11 33 -8 219 2 130 0
237 -3 237 -4 0 -70 -17 -146 -39 -77 -21 -164 -44 -194 -51 -30 -7 -69 -18
-86 -25 l-32 -13 -1 -94 c0 -51 -8 -275 -17 -498 -8 -223 -14 -432 -12 -465
l3 -60 65 -18 c175 -48 383 -98 388 -93 3 3 9 117 12 253 l8 248 -1 -245 c0
-135 4 -264 8 -286 l7 -42 -130 6 c-72 2 -139 2 -149 -3 -10 -4 -66 -6 -125
-5 -72 1 -108 -3 -108 -10 0 -6 6 -12 13 -14 6 -3 73 -27 147 -54 74 -28 149
-53 167 -57 18 -3 42 -14 55 -24 13 -10 38 -22 56 -25 35 -8 41 -20 15 -31
-33 -13 -173 -19 -173 -7 0 6 6 12 13 15 6 2 10 7 7 9 -3 3 -25 -4 -50 -16
l-45 -21 73 -3 c66 -3 87 -12 62 -27 -5 -3 -10 -13 -10 -21 0 -11 20 -14 101
-14 l101 0 -6 24 c-6 25 14 42 30 26 15 -14 116 -40 156 -40 35 0 38 2 38 28
0 52 -11 72 -37 72 -14 0 -50 7 -81 16 l-57 17 25 16 c39 25 111 93 105 99 -3
3 -24 -13 -48 -35 -23 -22 -56 -48 -74 -57 -18 -9 -33 -25 -35 -38 -2 -12 -7
-23 -13 -25 -7 -2 -8 68 -4 204 16 504 30 1556 21 1565 -6 6 -11 -101 -14
-285z m-31 -689 c-2 -13 -4 -3 -4 22 0 25 2 35 4 23 2 -13 2 -33 0 -45z m-17
-818 c0 -5 -5 -10 -11 -10 -5 0 -7 5 -4 10 3 6 8 10 11 10 2 0 4 -4 4 -10z"/>
<path d="M2630 1847 c0 -2 15 -16 33 -33 l32 -29 -29 33 c-28 30 -36 37 -36
29z"/>
<path d="M2182 1828 c-24 -24 -9 -88 21 -88 5 0 3 8 -4 17 -12 15 -12 16 4 10
11 -4 20 -1 23 8 8 20 34 19 34 0 0 -8 5 -15 10 -15 22 0 8 30 -20 45 -17 9
-28 20 -25 25 9 14 -29 12 -43 -2z"/>
<path d="M1576 1675 c4 -8 8 -15 10 -15 2 0 4 7 4 15 0 8 -4 15 -10 15 -5 0
-7 -7 -4 -15z"/>
<path d="M2678 1646 c-20 -6 -40 -14 -44 -18 -4 -5 -16 -8 -26 -8 -10 0 -18
-5 -18 -11 0 -6 -11 -24 -25 -40 -42 -51 -57 -149 -35 -229 11 -40 91 -123
133 -139 42 -16 144 -13 181 4 18 9 54 38 81 65 47 48 48 50 53 124 8 132 -49
222 -159 251 -63 17 -90 17 -141 1z m119 -57 c87 -33 109 -134 47 -209 -18
-21 -27 -43 -28 -72 -1 -35 -6 -45 -28 -58 -25 -13 -31 -13 -55 0 -23 13 -28
23 -29 57 -1 31 -10 52 -33 80 -57 69 -36 164 43 199 38 16 47 17 83 3z"/>
<path d="M2693 1535 c-31 -31 -35 -40 -30 -72 4 -20 17 -48 30 -62 14 -14 27
-33 30 -41 3 -8 6 10 6 41 1 30 -4 60 -11 67 -18 18 0 27 20 9 16 -15 19 -15
30 3 7 11 19 20 28 20 15 0 15 -2 0 -25 -18 -27 -22 -125 -6 -125 6 0 10 5 10
12 0 7 12 25 27 40 41 43 39 100 -5 139 -45 41 -84 39 -129 -6z"/>
<path d="M2068 1568 c9 -9 15 -9 24 0 9 9 7 12 -12 12 -19 0 -21 -3 -12 -12z"/>
<path d="M1960 1515 c0 -8 2 -15 4 -15 2 0 11 -3 20 -6 23 -9 20 9 -4 24 -17
10 -20 10 -20 -3z"/>
<path d="M1936 1488 c5 -8 2 -9 -9 -5 -23 9 -23 -25 1 -46 22 -20 97 -33 106
-19 3 6 -13 27 -37 46 -43 35 -76 48 -61 24z"/>
<path d="M1481 1444 c-11 -32 -11 -38 3 -53 16 -15 17 -15 10 2 -3 10 -1 17 5
17 13 0 15 39 3 57 -5 9 -12 1 -21 -23z"/>
<path d="M512 1270 c0 -14 2 -19 5 -12 2 6 2 18 0 25 -3 6 -5 1 -5 -13z"/>
<path d="M482 1130 c0 -14 2 -19 5 -12 2 6 2 18 0 25 -3 6 -5 1 -5 -13z"/>
<path d="M462 980 c0 -14 2 -19 5 -12 2 6 2 18 0 25 -3 6 -5 1 -5 -13z"/>
<path d="M2376 964 c-3 -8 -12 -14 -19 -14 -21 0 -14 -63 10 -87 12 -12 33
-20 53 -20 20 0 41 8 53 20 24 24 31 87 10 87 -7 0 -16 6 -19 14 -3 8 -20 13
-44 13 -24 0 -41 -5 -44 -13z m80 -25 c17 -19 17 -23 3 -47 -17 -32 -50 -39
-73 -17 -20 21 -21 49 0 69 21 22 47 20 70 -5z"/>
<path d="M2811 924 c0 -11 3 -14 6 -6 3 7 2 16 -1 19 -3 4 -6 -2 -5 -13z"/>
<path d="M2802 780 c0 -14 2 -19 5 -12 2 6 2 18 0 25 -3 6 -5 1 -5 -13z"/>
<path d="M4417 713 c-4 -32 -9 -73 -13 -90 -6 -29 -4 -33 16 -33 19 0 21 4 15
31 -5 22 -4 29 4 25 6 -4 11 -11 11 -16 0 -5 25 -51 55 -102 54 -93 55 -95 56
-179 1 -46 0 -144 -3 -216 l-5 -133 77 0 78 0 -19 87 c-11 49 -31 129 -44 179
-56 205 -179 504 -208 504 -10 0 -16 -18 -20 -57z"/>
<path d="M334 746 c-39 -17 -64 -52 -64 -89 0 -22 4 -28 16 -23 9 3 18 6 20 6
2 0 4 8 4 18 0 23 40 62 63 62 10 0 17 8 17 20 0 23 -13 25 -56 6z"/>
<path d="M3772 502 c-1 -127 1 -171 9 -166 7 4 71 6 143 5 124 -1 245 13 231
27 -4 4 -88 27 -188 52 l-182 45 -6 105 c-5 95 -5 88 -7 -68z"/>
<path d="M4401 560 c0 -8 4 -22 9 -30 12 -18 12 -2 0 25 -6 13 -9 15 -9 5z"/>
<path d="M4422 500 c0 -8 6 -31 13 -50 7 -19 13 -28 13 -20 0 8 -6 31 -13 50
-7 19 -13 28 -13 20z"/>
<path d="M3550 339 l0 -71 -60 4 c-33 1 -60 0 -60 -4 0 -5 29 -8 65 -8 l65 0
0 75 c0 41 -2 75 -5 75 -3 0 -5 -32 -5 -71z"/>
<path d="M2943 330 c0 -41 2 -58 4 -37 2 20 2 54 0 75 -2 20 -4 3 -4 -38z"/>
<path d="M4471 324 c0 -11 3 -14 6 -6 3 7 2 16 -1 19 -3 4 -6 -2 -5 -13z"/>
<path d="M3080 313 c0 -5 75 -7 167 -5 128 2 168 0 175 -10 7 -10 9 -10 5 2
-3 12 -33 15 -175 18 -95 1 -172 -1 -172 -5z"/>
<path d="M2964 263 c7 -7 97 -5 105 3 2 2 -22 4 -54 4 -32 0 -55 -3 -51 -7z"/>
<path d="M2595 249 c-4 -6 -5 -12 -2 -15 2 -3 7 2 10 11 7 17 1 20 -8 4z"/>
<path d="M1920 131 c0 -5 7 -14 15 -21 16 -14 18 -10 9 14 -6 17 -24 22 -24 7z"/>
<path d="M2678 91 c-7 -12 -20 -21 -28 -21 -10 0 -15 -10 -15 -32 0 -26 5 -34
21 -36 18 -3 21 3 22 34 1 20 7 43 13 50 7 8 9 17 6 20 -3 3 -12 -3 -19 -15z"/>
<path d="M2786 43 c-6 -14 -5 -15 5 -6 7 7 10 15 7 18 -3 3 -9 -2 -12 -12z"/>
<path d="M3335 50 l-40 -7 40 -2 c22 0 54 -9 70 -19 18 -11 54 -19 89 -20 l59
-2 -38 30 c-23 18 -49 30 -68 30 l-30 0 23 -25 c13 -14 20 -25 15 -25 -4 0
-23 11 -41 25 -18 14 -34 24 -36 24 -2 -1 -21 -5 -43 -9z"/>
<path d="M2877 23 c-4 -3 -7 -11 -7 -17 0 -6 5 -5 12 2 6 6 9 14 7 17 -3 3 -9
2 -12 -2z"/>
</g>
</svg>
